<svg xmlns="http://www.w3.org/2000/svg" width="196" height="77" viewBox="0 0 196 77" fill="none"><g clip-path="url(#clip0_17360_998)"><g opacity="0.98" fill="#4E8038"><path d="M128.481 34.22v1.586c0 1.585-.997 2.65-2.469 2.65h-3.543c-1.473 0-2.469-1.065-2.469-2.65v-1.083h1.377v1.014c0 .892.511 1.438 1.326 1.438h3.075c.814 0 1.325-.555 1.325-1.438v-1.438c0-.875-.511-1.438-1.325-1.438h-3.309c-1.473 0-2.469-1.066-2.469-2.65V28.66c0-1.603.996-2.651 2.469-2.651h3.543c1.472 0 2.469 1.048 2.469 2.65v1.083h-1.369v-1.03c0-.875-.511-1.421-1.325-1.421h-3.076c-.814 0-1.325.554-1.325 1.42v1.438c0 .875.511 1.421 1.325 1.421h3.309c1.473 0 2.469 1.066 2.469 2.65h-.008zM133.765 26h9.346v1.282h-3.984v11.166h-1.369V27.282h-3.985V26h-.008zM157.041 26v9.797c0 1.585-.997 2.65-2.469 2.65h-3.708c-1.472 0-2.468-1.065-2.468-2.65V26h1.377v9.728c0 .875.511 1.438 1.325 1.438h3.24c.814 0 1.325-.572 1.325-1.438V26h1.378zM169.662 38.448h-6.168V26h6.168c1.472 0 2.469 1.048 2.469 2.65v7.147c0 1.585-.997 2.65-2.469 2.65zm1.091-9.745c0-.875-.511-1.421-1.325-1.421h-4.565v9.884h4.565c.814 0 1.325-.572 1.325-1.438v-7.025zM178.584 26h1.377v12.448h-1.377V26zM192.574 38.448h-3.708c-1.472 0-2.469-1.066-2.469-2.65V28.65c0-1.603.997-2.651 2.469-2.651h3.708c1.472 0 2.469 1.048 2.469 2.65v7.147c0 1.585-.997 2.65-2.469 2.65zm1.091-9.745c0-.875-.511-1.421-1.325-1.421h-3.24c-.814 0-1.325.554-1.325 1.42v7.026c0 .875.511 1.438 1.325 1.438h3.24c.814 0 1.325-.572 1.325-1.438v-7.025zM128.645 58.05h-1.022l-.147-.727c-.433.46-1.057.728-1.785.728h-3.205c-1.472 0-2.469-1.066-2.469-2.65v-7.147c0-1.603.997-2.651 2.469-2.651h3.708c1.472 0 2.468 1.048 2.468 2.65v1.17h-1.377v-1.117c0-.875-.511-1.42-1.325-1.42h-3.24c-.814 0-1.325.553-1.325 1.42v7.025c0 .875.511 1.438 1.325 1.438h3.24c.814 0 1.325-.572 1.325-1.438V53h-3.638v-1.282h5.015v6.332h-.017zM141.379 53.295l2.018 4.747h-1.507l-1.932-4.712h-3.491v4.712h-1.377V45.594h5.838c1.473 0 2.469 1.049 2.469 2.651v2.434c0 1.421-.797 2.417-2.018 2.616zm.641-4.99c0-.874-.511-1.42-1.326-1.42h-4.235v5.172h4.235c.815 0 1.326-.555 1.326-1.421v-2.33zM149.513 45.603h7.476v1.282h-6.107v4.288h5.275v1.282h-5.275v4.323h6.107v1.282h-7.476V45.603zM162.948 45.603h7.476v1.282h-6.107v4.288h5.275v1.282h-5.275v4.323h6.107v1.282h-7.476V45.603zM177.752 48.288v9.763h-1.377V45.603h1.291l5.968 9.745v-9.745h1.377v12.448h-1.29l-5.969-9.763z"></path></g><path d="M123.865 71.545v-.773c0-.347-.186-.547-.506-.547h-1.76c-.306 0-.506.213-.506.547v3.771c0 .347.187.547.506.547h1.76c.306 0 .506-.2.506-.547v-.786h1.093v.84c0 .893-.573 1.506-1.399 1.506H121.4c-.827 0-1.4-.613-1.4-1.506v-3.892c0-.906.573-1.506 1.4-1.506h2.159c.839 0 1.399.6 1.399 1.506v.826h-1.093v.014zM134.608 73.157h-2.772v2.96h-1.093v-6.918h1.093v2.945h2.772V69.2h1.093v6.917h-1.093v-2.959zM141.486 69.2h4.318v1.012h-3.225v1.92h2.759v1.012h-2.759v1.92h3.225v1.026h-4.318v-6.917.026zM155.96 71.518l-1.759 3.559-1.759-3.56v4.6h-1.093v-6.918h1.053l1.786 3.638 1.786-3.638h1.053v6.917h-1.093v-4.598h.026zM162.839 69.199h1.093v6.917h-1.093V69.2zM174.581 73.665v.946c0 .907-.573 1.506-1.4 1.506h-2.066c-.839 0-1.399-.6-1.399-1.506v-.613h1.093v.56c0 .346.186.546.506.546h1.666c.307 0 .507-.2.507-.546v-.84c0-.333-.187-.546-.507-.546h-1.879c-.826 0-1.4-.6-1.4-1.506v-.933c0-.907.574-1.506 1.4-1.506h2.066c.84 0 1.399.6 1.399 1.506v.613h-1.093v-.547c0-.346-.186-.546-.506-.546h-1.666c-.307 0-.507.213-.507.546v.827c0 .346.187.546.507.546h1.879c.827 0 1.4.6 1.4 1.506v-.013zM179.765 69.199h5.172v1.013h-2.04v5.89h-1.093v-5.89h-2.039v-1.013zM195 73.665v.946c0 .907-.573 1.506-1.4 1.506h-2.066c-.839 0-1.399-.6-1.399-1.506v-.613h1.093v.56c0 .346.186.546.506.546h1.666c.307 0 .507-.2.507-.546v-.84c0-.333-.187-.546-.507-.546h-1.879c-.826 0-1.399-.6-1.399-1.506v-.933c0-.907.573-1.506 1.399-1.506h2.066c.84 0 1.4.6 1.4 1.506v.613h-1.093v-.547c0-.346-.187-.546-.507-.546h-1.666c-.307 0-.506.213-.506.546v.827c0 .346.186.546.506.546h1.879c.827 0 1.4.6 1.4 1.506v-.013z" fill="#335239"></path><path d="M15.28 0H0v15.28h15.28V0z" fill="#557348"></path><path d="M15.28 15.28H0v15.281h15.28v-15.28z" fill="#487840"></path><path d="M15.28 30.345H0v15.28h15.28v-15.28z" fill="#55804B"></path><path d="M15.28 45.417H0v15.28h15.28v-15.28z" fill="#4E8038"></path><path opacity="0.95" d="M15.28 60.698H0v15.28h15.28v-15.28z" fill="#3B602A"></path><path d="M30.561 0h-15.28v15.28h15.28V0z" fill="#467C3C"></path><path d="M30.561 15.28h-15.28v15.281h15.28v-15.28z" fill="#3D713C"></path><path d="M30.561 30.345h-15.28v15.28h15.28v-15.28z" fill="#41763F"></path><path opacity="0.9" d="M30.561 45.417h-15.28v15.28h15.28v-15.28z" fill="#4E8038"></path><path d="M30.561 60.698h-15.28v15.28h15.28v-15.28z" fill="#5F864D"></path><path d="M45.842 0H30.56v15.28h15.28V0z" fill="#4E8038"></path><path d="M45.842 15.28H30.56v15.281h15.28v-15.28z" fill="#56804B"></path><path d="M45.842 30.345H30.56v15.28h15.28v-15.28z" fill="#4C7D41"></path><path d="M45.842 45.417H30.56v15.28h15.28v-15.28z" fill="#5F834F"></path><path d="M45.842 60.698H30.56v15.28h15.28v-15.28z" fill="#8EB259"></path><path d="M61.13 0H45.85v15.28h15.28V0zM61.13 15.28H45.85v15.281h15.28v-15.28z" fill="#42743C"></path><path d="M61.13 30.345H45.85v15.28h15.28v-15.28z" fill="#4D7E41"></path><path d="M61.13 45.417H45.85v15.28h15.28v-15.28z" fill="#3A7137"></path><path d="M61.13 60.698H45.85v15.28h15.28v-15.28z" fill="#4E8038"></path><path d="M76.411 0h-15.28v15.28h15.28V0z" fill="#3B602A"></path><path d="M76.411 15.28h-15.28v15.281h15.28v-15.28z" fill="#1F4D27"></path><path d="M76.411 30.345h-15.28v15.28h15.28v-15.28z" fill="#2C512C"></path><path d="M76.411 45.417h-15.28v15.28h15.28v-15.28z" fill="#4E8038"></path><path d="M76.411 60.698h-15.28v15.28h15.28v-15.28z" fill="#46783B"></path><path d="M91.692 0h-15.28v15.28h15.28V0z" fill="#1A3E20"></path><path d="M91.692 15.28h-15.28v15.281h15.28v-15.28z" fill="#244126"></path><path d="M91.692 30.345h-15.28v15.28h15.28v-15.28z" fill="#173A20"></path><path d="M91.692 45.417h-15.28v15.28h15.28v-15.28z" fill="#184322"></path><path d="M91.692 60.698h-15.28v15.28h15.28v-15.28z" fill="#346734"></path><path d="M106.972 0h-15.28v15.28h15.28V0z" fill="#174223"></path><path d="M106.972 15.28h-15.28v15.281h15.28v-15.28z" fill="#14391E"></path><path d="M106.972 30.345h-15.28v15.28h15.28v-15.28z" fill="#174223"></path><path d="M106.972 45.417h-15.28v15.28h15.28v-15.28z" fill="#1F4D27"></path><path d="M106.972 60.698h-15.28v15.28h15.28v-15.28z" fill="#3B602A"></path></g><defs><clipPath id="clip0_17360_998"><path fill="#fff" d="M0 0H196V77H0z"></path></clipPath></defs></svg>