<?xml version="1.0" encoding="utf-8"?>
<svg xmlns="http://www.w3.org/2000/svg" xmlns:xlink="http://www.w3.org/1999/xlink" version="1.1" id="Artwork" x="0px" y="0px" viewBox="0 0 803.6 160.6" style="enable-background:new 0 0 803.6 160.6;">
<path d="M59.4,52.6l0.8,3L56.6,58c-2.8,2-4.4,4.4-4.4,7.2c0,2.4,0.8,5,2.2,9.4L69.8,123l14-38.2l-4.6-12.4&#xA;	c-2.8-7.8-5.8-12.8-10.4-16.8l0.8-3c18.6,1.2,35.4,1.2,54,0l0.8,3l-4.2,2.6c-2.8,1.8-4,3.6-4,6.6c0,2.4,0.8,5.2,2.2,9.4l16,48.8&#xA;	l12.8-33.8c1.6-4.4,2.2-7.6,2.2-11.4c0-7.4-4.4-14.4-13.8-22.2l0.8-3c13.4,1,26.8,1,40.2,0l0.8,3c-8.8,8-14.2,16.2-20.2,31.8&#xA;	l-26.8,70c-6.6-0.4-13.4-0.4-20,0L88.2,97.2l-22,60.2c-6.8-0.4-14-0.4-20.8,0L13.2,73.2C9,62.4,6.8,59.6,0,55.6l0.8-3&#xA;	C20.6,53.8,39.6,53.8,59.4,52.6z M227.2,160.6c-34.4,0-56.2-22-56.2-55.4s23.2-55.4,56.8-55.4c31.2,0,52.8,18.2,56,48.4h-72.2&#xA;	c1.2,25,13,35.6,34,35.6c12.4,0,24.2-4,33.4-11l3,2.2C273.4,147,252.8,160.6,227.2,160.6z M211.4,90.4h34.2&#xA;	c-1.6-25.2-8.4-33.2-17.6-33.2C217.8,57.2,211.8,67,211.4,90.4L211.4,90.4z M338.6,52.6l0.8,3l-3.6,2.4c-2.8,2-4.4,4.4-4.4,7.2&#xA;	c0,2.4,0.8,5,2.2,9.4L349,123l14-38.2l-4.6-12.4c-2.8-7.8-5.8-12.8-10.4-16.8l0.8-3c18.6,1.2,35.4,1.2,54,0l0.8,3l-4.2,2.6&#xA;	c-2.8,1.8-4,3.6-4,6.6c0,2.4,0.8,5.2,2.2,9.4l16,48.8l12.8-33.8c1.6-4.4,2.2-7.6,2.2-11.4c0-7.4-4.4-14.4-13.8-22.2l0.8-3&#xA;	c13.4,1,26.8,1,40.2,0l0.8,3c-8.8,8-14.2,16.2-20.2,31.8l-26.8,70c-6.6-0.4-13.4-0.4-20,0l-22.2-60.2l-22,60.2&#xA;	c-6.8-0.4-14-0.4-20.8,0l-32.2-84.2c-4.2-10.8-6.4-13.6-13.2-17.6l0.8-3C299.8,53.8,318.8,53.8,338.6,52.6L338.6,52.6z M510.2,49.8&#xA;	c34.8,0,60,22,60,55.4s-25.6,55.4-60.4,55.4s-60-22-60-55.4S475.4,49.8,510.2,49.8z M491.6,101.2c0,33.6,6,51.6,19.4,51.6&#xA;	c10.8,0,17.4-8.8,17.4-43.6s-6-51.6-19.4-51.6C498.2,57.6,491.6,66.4,491.6,101.2L491.6,101.2z M572.4,157.6l-0.8-3l7.8-4.2&#xA;	c5.6-3,7-5.6,7-12.4V80.2c0-8.8-1-11-7-14l-7.4-3.6v-3l10.2-1.4c14-2,28.4-5,39.6-8l1,0.8v27.4c5-19.6,16.2-28.8,29.4-28.8&#xA;	c11.6,0,19.2,7.4,19.2,17.4s-7,16.6-16.4,16.6c-8.6,0-13-4.4-19.6-4.4c-7.2,0-12.6,4-12.6,19.2v39.8c0,6.8,1.4,9.4,7.2,12.2l8.4,4.2&#xA;	l-0.8,3C616,156.4,594,156.4,572.4,157.6L572.4,157.6z M718.6,102.4l25.8-22c5.2-4.6,7.2-7.2,7.2-10.4s-1.8-5.6-7.8-9.8l-6.8-4.6&#xA;	l0.8-3c18.4,1.2,38,1.2,56.4,0l0.8,3c-11.4,5.2-19.6,10.2-30,18.8l-15.4,12.8l40.2,56c4,5.4,7.8,8.4,13.8,11.4l-0.8,3&#xA;	c-19.6-1.2-41.8-1.2-61.4,0l-0.8-3c7.6-3,9.4-4.6,9.4-7.2c0-1.8-0.8-3.2-2.8-6.2L724,108.4l-5.8,4.8v25c0,6.8,1.4,9.4,7.2,13&#xA;	l5.6,3.4l-0.8,3c-19.6-1.2-42-1.2-61.6,0l-0.8-3l7.8-4.2c5.6-3,7-5.6,7-12.4V30c0-8.8-1-11-7-14l-7.4-3.6v-3L678.4,8&#xA;	c14-2,28.2-5,39.2-8l1,0.8L718.6,102.4L718.6,102.4z"/>
</svg>