<svg width="178" height="66" viewBox="0 0 178 66" fill="none" xmlns="http://www.w3.org/2000/svg">
<g clip-path="url(#clip0_20306_2856)">
<path d="M16.693 8.59277C23.3776 8.59277 28.8157 13.9011 28.8157 20.4238C28.8157 26.9466 23.3776 32.2549 16.693 32.2549H4.28173V45.1899H0V8.59277H16.693ZM24.5363 20.4238C24.5363 16.2034 21.0186 12.7718 16.6953 12.7718H4.27942V28.0781H16.693C21.0186 28.0781 24.534 24.6443 24.534 20.4238H24.5363Z" fill="#A59F99"/>
<path d="M71.9677 45.1899H66.5204L56.0595 32.2572H45.1394V45.1899H40.8577V8.59277H57.5553C64.2375 8.59277 69.6757 13.9011 69.6757 20.4284C69.6757 25.7391 66.0864 30.2631 61.0984 31.7443L71.97 45.1899H71.9677ZM57.553 28.0758C61.8739 28.0758 65.3916 24.6489 65.3916 20.4284C65.3916 16.208 61.8762 12.7718 57.553 12.7718H45.1371V28.0758H57.553Z" fill="#A59F99"/>
<path d="M84.7598 45.1899V8.59277H89.0415V45.1899H84.7598Z" fill="#A59F99"/>
<path d="M138.661 8.58813L121.622 45.1853H118.27L101.231 8.58813H105.942L119.946 38.681L133.95 8.58813H138.661Z" fill="#A59F99"/>
<path d="M155.174 12.7693V24.8005H174.388V28.9795H155.174V41.0107H177.841V45.1897H150.892V8.59255H177.841V12.7693H155.174ZM165.33 4.8873L162.77 4.9931L164.511 -0.00244141H169.222L165.328 4.885L165.33 4.8873Z" fill="#A59F99"/>
<path d="M4.04157 65.8964V55.0589H0.0529785V53.9688H9.23043V55.0589H5.24184V65.8964H4.04157Z" fill="#A59F99"/>
<path d="M17.0574 65.8965H15.8572V53.9666H17.0574V65.8965ZM24.2729 60.3927H16.9282V59.2841H24.2729V60.3927ZM24.1598 53.9689H25.3439V65.8988H24.1598V53.9689Z" fill="#A59F99"/>
<path d="M33.1898 64.8063H40.0152V65.8965H31.9895V53.9666H39.7728V55.0567H33.1898V64.804V64.8063ZM33.0582 59.3025H39.0572V60.3766H33.0582V59.3025Z" fill="#A59F99"/>
<path d="M46.0811 65.8965V53.9666H50.3282C51.2907 53.9666 52.117 54.1276 52.8095 54.4518C53.502 54.7761 54.0328 55.2407 54.4068 55.8502C54.7807 56.4574 54.9654 57.1934 54.9654 58.0559C54.9654 58.9184 54.7784 59.6222 54.4068 60.2294C54.0328 60.8366 53.502 61.3035 52.8095 61.6278C52.117 61.9521 51.2907 62.1131 50.3282 62.1131H46.7458L47.2813 61.5335V65.8965H46.0811ZM47.279 61.637L46.7435 61.0413H50.2958C51.4315 61.0413 52.2925 60.7791 52.881 60.257C53.4696 59.7349 53.7651 59.0012 53.7651 58.0582C53.7651 57.1152 53.4696 56.3654 52.881 55.8433C52.2925 55.3212 51.4292 55.059 50.2958 55.059H46.7435L47.279 54.4633V61.6393V61.637ZM53.8297 65.8965L50.9098 61.568H52.207L55.1431 65.8965H53.8297Z" fill="#A59F99"/>
<path d="M59.231 65.8965L64.4198 53.9666H65.6039L70.7928 65.8965H69.5279L64.7614 54.7002H65.2485L60.482 65.8965H59.2333H59.231ZM61.2737 62.711L61.6315 61.6876H68.2307L68.5884 62.711H61.276H61.2737Z" fill="#A59F99"/>
<path d="M75.9146 65.8965V53.9666H80.1617C81.1242 53.9666 81.9505 54.1276 82.643 54.4518C83.3354 54.7761 83.8663 55.2407 84.2403 55.8502C84.6142 56.4574 84.7989 57.1934 84.7989 58.0559C84.7989 58.9184 84.6119 59.6222 84.2403 60.2294C83.8663 60.8366 83.3354 61.3058 82.643 61.6347C81.9505 61.9636 81.1242 62.1292 80.1617 62.1292H76.5793L77.1148 61.5335V65.8965H75.9146ZM77.1148 61.637L76.5793 61.0229H80.1316C81.2673 61.0229 82.1282 60.7653 82.7168 60.2478C83.3054 59.7303 83.6009 59.0012 83.6009 58.0582C83.6009 57.1152 83.3054 56.3654 82.7168 55.8433C82.1282 55.3212 81.265 55.059 80.1316 55.059H76.5793L77.1148 54.4633V61.6393V61.637Z" fill="#A59F99"/>
<path d="M92.3653 64.8063H99.1907V65.8965H91.165V53.9666H98.9483V55.0567H92.3653V64.804V64.8063ZM92.2361 59.3025H98.2351V60.3766H92.2361V59.3025Z" fill="#A59F99"/>
<path d="M109.829 65.9999C108.38 65.9999 107.239 65.5629 106.408 64.6866C105.575 63.8126 105.16 62.5177 105.16 60.802V53.9688H106.36V60.7514C106.36 62.1613 106.662 63.2008 107.267 63.8701C107.872 64.5394 108.726 64.8752 109.829 64.8752C110.933 64.8752 111.803 64.5394 112.407 63.8701C113.012 63.2008 113.317 62.1613 113.317 60.7514V53.9688H114.485V60.802C114.485 62.5177 114.072 63.8126 113.245 64.6866C112.419 65.5606 111.281 65.9999 109.831 65.9999H109.829Z" fill="#A59F99"/>
<path d="M124.362 65.8964V55.0589H120.373V53.9688H129.55V55.0589H125.562V65.8964H124.362Z" fill="#A59F99"/>
<path d="M135.455 65.8965V53.9666H136.655V65.8965H135.455Z" fill="#A59F99"/>
<path d="M149.046 65.9999C148.192 65.9999 147.402 65.8504 146.678 65.5491C145.953 65.2478 145.327 64.8246 144.796 64.2795C144.265 63.7345 143.852 63.0928 143.557 62.3545C143.259 61.6162 143.111 60.8089 143.111 59.9349C143.111 59.0609 143.259 58.2536 143.557 57.5153C143.855 56.777 144.27 56.1353 144.806 55.5903C145.341 55.0452 145.971 54.622 146.694 54.3207C147.418 54.0194 148.208 53.8699 149.062 53.8699C149.916 53.8699 150.657 54.0148 151.382 54.3046C152.106 54.5944 152.716 55.0291 153.214 55.6087L152.453 56.409C151.989 55.9099 151.474 55.5489 150.913 55.3258C150.352 55.105 149.745 54.9946 149.097 54.9946C148.416 54.9946 147.783 55.1165 147.199 55.3603C146.615 55.6041 146.107 55.9513 145.676 56.3998C145.244 56.8483 144.905 57.3704 144.662 57.9684C144.42 58.5641 144.298 59.2219 144.298 59.9372C144.298 60.6525 144.418 61.308 144.662 61.906C144.905 62.5017 145.244 63.0261 145.676 63.4746C146.107 63.9231 146.615 64.2703 147.199 64.5141C147.783 64.7579 148.416 64.8798 149.097 64.8798C149.777 64.8798 150.35 64.7671 150.913 64.5394C151.476 64.3117 151.989 63.9483 152.453 63.4493L153.214 64.2496C152.716 64.8292 152.106 65.2662 151.382 65.5629C150.657 65.8573 149.879 66.0068 149.048 66.0068L149.046 65.9999Z" fill="#A59F99"/>
<path d="M163.158 66C162.316 66 161.508 65.8551 160.735 65.5653C159.961 65.2755 159.363 64.9029 158.943 64.4498L159.414 63.4793C159.814 63.8887 160.351 64.2314 161.028 64.5096C161.704 64.7879 162.415 64.9282 163.16 64.9282C163.906 64.9282 164.455 64.8339 164.903 64.6476C165.351 64.4613 165.681 64.2084 165.893 63.8887C166.103 63.5713 166.21 63.2194 166.21 62.833C166.21 62.3684 166.083 61.9935 165.829 61.7083C165.575 61.4254 165.242 61.2 164.832 61.0344C164.421 60.8688 163.966 60.7239 163.47 60.5997C162.974 60.4755 162.475 60.3421 161.979 60.1995C161.482 60.0569 161.025 59.8683 160.608 59.6291C160.19 59.3899 159.857 59.0748 159.604 58.6838C159.35 58.2928 159.223 57.7776 159.223 57.1405C159.223 56.5494 159.37 56.0066 159.668 55.5122C159.966 55.0177 160.423 54.6198 161.039 54.3185C161.656 54.0172 162.445 53.8677 163.407 53.8677C164.045 53.8677 164.677 53.962 165.305 54.1483C165.93 54.3346 166.473 54.5945 166.925 54.9234L166.519 55.9284C166.032 55.5881 165.517 55.3374 164.97 55.1787C164.425 55.02 163.897 54.9395 163.389 54.9395C162.708 54.9395 162.145 55.0361 161.704 55.2293C161.261 55.4225 160.933 55.6801 160.723 56.0043C160.513 56.3286 160.407 56.6943 160.407 57.1037C160.407 57.5706 160.534 57.9455 160.788 58.2284C161.042 58.5113 161.376 58.7344 161.792 58.8931C162.207 59.0518 162.664 59.1944 163.163 59.3186C163.659 59.4428 164.155 59.5808 164.647 59.728C165.139 59.8752 165.593 60.0661 166.009 60.2984C166.424 60.5307 166.759 60.8412 167.013 61.2276C167.267 61.614 167.394 62.12 167.394 62.7433C167.394 63.3229 167.241 63.8588 166.939 64.3532C166.637 64.8477 166.175 65.2456 165.552 65.5469C164.931 65.8482 164.132 65.9977 163.16 65.9977L163.158 66Z" fill="#A59F99"/>
<path d="M171.567 57.9294V54.5346H170.272V54.054H173.395V54.5346H172.1V57.9294H171.567Z" fill="#A59F99"/>
<path d="M173.981 57.9294V54.054H174.424L176.119 56.9841H175.881L177.552 54.054H177.995L178 57.9294H177.483L177.478 54.8888H177.603L176.114 57.4579H175.865L174.364 54.8888H174.501V57.9294H173.984H173.981Z" fill="#A59F99"/>
</g>
<defs>
<clipPath id="clip0_20306_2856">
<rect width="178" height="66" fill="white"/>
</clipPath>
</defs>
</svg>
